<?xml version="1.0" encoding="utf-8"?><svg viewBox="0 0 126 32" xmlns="http://www.w3.org/2000/svg" xmlns:xlink="http://www.w3.org/1999/xlink"><style>:root>svg{display:none}:root>svg:target{display:block}</style><svg fill="none" viewBox="0 0 10 6" id="arrow-down" xmlns="http://www.w3.org/2000/svg"><path d="M1 1l4 4 4-4" stroke="#fff" stroke-opacity=".8"/></svg><svg fill="none" viewBox="0 0 44 16" id="arrow-slider-left" xmlns="http://www.w3.org/2000/svg"><path d="M.293 7.293a1 1 0 000 1.414l6.364 6.364a1 1 0 001.414-1.414L2.414 8l5.657-5.657A1 1 0 006.657.93L.293 7.293zM44 7H1v2h43V7z" fill="#fff"/></svg><svg fill="none" viewBox="0 0 44 16" id="arrow-slider-right" xmlns="http://www.w3.org/2000/svg"><path d="M43.707 7.293a1 1 0 010 1.414l-6.364 6.364a1 1 0 01-1.414-1.414L41.586 8l-5.657-5.657A1 1 0 0137.343.93l6.364 6.364zM0 7h43v2H0V7z" fill="#fff"/></svg><svg fill="none" viewBox="0 0 19 20" id="cart" xmlns="http://www.w3.org/2000/svg"><path d="M15.044 13.595c-1.307 0-2.37 1.1-2.37 2.453 0 1.352 1.064 2.452 2.37 2.452s2.369-1.1 2.369-2.452c0-1.352-1.063-2.453-2.37-2.453zm0 3.434c-.523 0-.948-.44-.948-.981 0-.541.425-.981.948-.981.522 0 .947.44.947.98 0 .542-.425.982-.947.982zM18.849 4.117a.702.702 0 00-.56-.282H4.387l-.64-2.77A.716.716 0 003.057.5H.71C.318.5 0 .83 0 1.236c0 .406.318.735.71.735h1.785l2.31 10.005a.716.716 0 00.691.565H16.56c.327 0 .611-.23.69-.56l1.73-7.233a.757.757 0 00-.131-.63zm-2.845 6.952H6.057l-1.33-5.762H17.38l-1.377 5.762zM6.444 13.595c-1.306 0-2.37 1.1-2.37 2.453 0 1.352 1.064 2.452 2.37 2.452s2.369-1.1 2.369-2.452c0-1.352-1.063-2.453-2.37-2.453zm0 3.434c-.523 0-.948-.44-.948-.981 0-.541.425-.981.948-.981.523 0 .948.44.948.98 0 .542-.425.982-.948.982z" fill="#E92D28"/></svg><svg fill="none" viewBox="0 0 126 32" id="logo" xmlns="http://www.w3.org/2000/svg"><g clip-path="url(#eclip0_1_87)" fill="#E92D28"><path d="M26.25 24.04l3.054 5.265h3.074c-2.824-4.88-5.63-9.732-8.445-14.601l-5.41-9.356-6.156 10.629H9.28c2.51-4.338 4.997-8.64 7.515-12.995L18.519 0l4.88 8.436 13.571 23.46h-9.259l-3.02-5.212H9.26c.542-.938 1.033-1.79 1.524-2.637l15.466-.006z"/><path d="M24.56 31.896l-1.444-2.606H4.668L9.3 21.29h15.362l-6.141-10.615c-.505.87-.96 1.658-1.41 2.437l-.133.228 3.069 5.33H7.732l-.117.193c-.075.123-.145.236-.211.351a4020.475 4020.475 0 01-6.9 11.924 7.597 7.597 0 00-.23.405c-.065.118-.133.242-.198.354H24.56z"/></g><path d="M40.33 21V7.7h6.08c1.216 0 2.261.196 3.135.589.887.393 1.57.963 2.052 1.71.481.735.722 1.609.722 2.622 0 1-.24 1.868-.722 2.603-.481.735-1.165 1.305-2.052 1.71-.874.393-1.919.589-3.135.589h-3.99l1.672-1.634V21H40.33zm3.762-4.712l-1.672-1.729h3.762c.785 0 1.368-.171 1.748-.513.393-.342.589-.817.589-1.425 0-.62-.196-1.102-.589-1.444-.38-.342-.963-.513-1.748-.513H42.42l1.672-1.729v7.353zM54.153 21V7.7h6.08c1.216 0 2.261.196 3.135.589.887.393 1.57.963 2.052 1.71.482.735.722 1.609.722 2.622 0 1-.24 1.868-.722 2.603-.481.722-1.165 1.28-2.052 1.672-.874.38-1.919.57-3.135.57h-3.99l1.672-1.577V21h-3.762zm8.227 0l-3.306-4.845h4.01L66.407 21H62.38zm-4.465-4.712l-1.672-1.729h3.762c.786 0 1.368-.171 1.748-.513.393-.342.59-.817.59-1.425 0-.62-.197-1.102-.59-1.444-.38-.342-.962-.513-1.748-.513h-3.762l1.672-1.729v7.353zm17.01 4.978c-1.064 0-2.046-.171-2.945-.513a7.2 7.2 0 01-2.356-1.444 6.852 6.852 0 01-1.54-2.204c-.367-.836-.55-1.754-.55-2.755 0-1 .183-1.919.55-2.755a6.641 6.641 0 011.54-2.185 7.039 7.039 0 012.356-1.463c.899-.342 1.88-.513 2.945-.513 1.076 0 2.058.171 2.945.513.899.342 1.678.83 2.337 1.463a6.641 6.641 0 011.539 2.185c.38.836.57 1.754.57 2.755 0 1-.19 1.925-.57 2.774a6.641 6.641 0 01-1.54 2.185 6.986 6.986 0 01-2.336 1.444c-.887.342-1.869.513-2.945.513zm0-3.116c.506 0 .975-.089 1.406-.266.443-.177.823-.43 1.14-.76.329-.342.582-.747.76-1.216.19-.469.285-.988.285-1.558 0-.583-.095-1.102-.285-1.558a3.337 3.337 0 00-.76-1.197 3.103 3.103 0 00-1.14-.779c-.431-.177-.9-.266-1.406-.266-.507 0-.982.089-1.425.266-.431.177-.811.437-1.14.779a3.72 3.72 0 00-.76 1.197c-.178.456-.266.975-.266 1.558 0 .57.088 1.09.266 1.558.19.469.443.874.76 1.216.329.33.709.583 1.14.76.443.177.918.266 1.425.266zm12.857-4.617h6.137v2.907h-6.137v-2.907zM88.048 21h-3.762V7.7h10.431v2.907h-6.669V21zm8.428 0V7.7h3.762V21h-3.761zm6.439 0V7.7h3.762v10.317h6.346V21h-10.108zm15.055-8.151h6.175v2.812h-6.175v-2.812zm.266 5.244h6.954V21h-10.678V7.7h10.431v2.907h-6.707v7.486zM51.498 30.66v-4.2h.804l1.788 2.965h-.426l1.758-2.964h.798l.012 4.2h-.912l-.006-2.802h.168l-1.404 2.358h-.438l-1.434-2.358h.204v2.802h-.912zm6.979 0l1.872-4.2h.96l1.878 4.2h-1.02l-1.537-3.707h.384l-1.542 3.708h-.995zm.936-.9l.258-.737h2.16l.263.738h-2.681zm6.01.9v-4.2h.803l2.478 3.025h-.39V26.46h.96v4.2h-.798l-2.484-3.024h.39v3.024h-.96zm8.51.073c-.595 0-1.061-.166-1.397-.498-.336-.332-.504-.806-.504-1.422V26.46h.972v2.316c0 .4.082.688.246.864.164.176.394.264.69.264.296 0 .526-.088.69-.264.164-.176.246-.464.246-.864V26.46h.96v2.352c0 .616-.168 1.09-.504 1.422-.336.332-.802.498-1.398.498zm5.563-2.382h2.016v.78h-2.016v-.78zm.072 2.31h-.972v-4.2h3.174v.78h-2.202v3.42zm3.939 0l1.871-4.2h.96l1.879 4.2h-1.02l-1.537-3.708h.385l-1.543 3.708h-.995zm.935-.9l.259-.738h2.16l.263.738h-2.681zm7.962.972c-.324 0-.626-.052-.906-.156a2.141 2.141 0 01-1.2-1.146 2.205 2.205 0 01-.168-.87c0-.316.056-.606.168-.87.116-.264.276-.494.48-.69.208-.196.45-.346.726-.45.276-.108.578-.162.906-.162.364 0 .692.064.984.192.296.124.544.308.744.552l-.624.576a1.424 1.424 0 00-.48-.366 1.32 1.32 0 00-.576-.126c-.196 0-.376.032-.54.096a1.224 1.224 0 00-.426.276c-.12.12-.214.262-.282.426a1.49 1.49 0 00-.096.546c0 .2.032.382.096.546.068.164.162.306.282.426.12.12.262.212.426.276.164.064.344.096.54.096.208 0 .4-.04.576-.12.176-.084.336-.21.48-.378l.624.576c-.2.244-.448.43-.744.558a2.442 2.442 0 01-.99.192zm5.02-.072v-3.408h-1.345v-.792h3.66v.792h-1.344v3.408h-.972zm6.434.072c-.596 0-1.062-.166-1.398-.498-.336-.332-.504-.806-.504-1.422V26.46h.972v2.316c0 .4.082.688.246.864.164.176.394.264.69.264.296 0 .526-.088.69-.264.164-.176.246-.464.246-.864V26.46h.96v2.352c0 .616-.168 1.09-.504 1.422-.336.332-.802.498-1.398.498zm4.662-.072v-4.2h1.818c.376 0 .7.062.972.186.272.12.482.294.63.522.148.228.222.5.222.816 0 .312-.074.582-.222.81a1.419 1.419 0 01-.63.516c-.272.12-.596.18-.972.18h-1.278l.432-.426v1.596h-.972zm2.67 0l-1.05-1.524h1.038l1.062 1.524h-1.05zm-1.698-1.488l-.432-.456h1.224c.3 0 .524-.064.672-.192.148-.132.222-.312.222-.54 0-.232-.074-.412-.222-.54-.148-.128-.372-.192-.672-.192h-1.224l.432-.462v2.382zm6.134-1.02h2.022v.756h-2.022v-.756zm.072 1.728h2.286v.78h-3.252v-4.2h3.174v.78h-2.208v2.64z" fill="#fff"/><defs><clipPath id="eclip0_1_87"><path fill="#fff" d="M0 0h37v32H0z"/></clipPath></defs></svg><svg fill="none" viewBox="0 0 17 18" id="search" xmlns="http://www.w3.org/2000/svg"><path d="M16.741 16.395l-4.19-4.455a7.341 7.341 0 001.668-4.673C14.219 3.26 11.029 0 7.109 0 3.19 0 0 3.26 0 7.267c0 4.008 3.19 7.268 7.11 7.268a6.928 6.928 0 004.072-1.315l4.223 4.49a.91.91 0 001.31.025.964.964 0 00.026-1.34zM7.11 1.895c2.898 0 5.255 2.41 5.255 5.372 0 2.962-2.357 5.372-5.255 5.372-2.897 0-5.254-2.41-5.254-5.372 0-2.961 2.357-5.371 5.254-5.371z" fill="#fff" fill-opacity=".8"/></svg></svg>